<svg width="170" height="16" viewBox="0 0 170 16" fill="none" xmlns="http://www.w3.org/2000/svg">
<path d="M8.87695 11.3379C8.87695 10.7129 8.6556 10.2311 8.21289 9.89258C7.77669 9.55404 6.98568 9.21224 5.83984 8.86719C4.69401 8.52214 3.78255 8.13802 3.10547 7.71484C1.8099 6.90104 1.16211 5.83984 1.16211 4.53125C1.16211 3.38542 1.6276 2.44141 2.55859 1.69922C3.49609 0.957031 4.71029 0.585938 6.20117 0.585938C7.19076 0.585938 8.07292 0.768229 8.84766 1.13281C9.6224 1.4974 10.2311 2.01823 10.6738 2.69531C11.1165 3.36589 11.3379 4.11133 11.3379 4.93164H8.87695C8.87695 4.18945 8.64258 3.61003 8.17383 3.19336C7.71159 2.77018 7.04753 2.55859 6.18164 2.55859C5.37435 2.55859 4.74609 2.73112 4.29688 3.07617C3.85417 3.42122 3.63281 3.90299 3.63281 4.52148C3.63281 5.04232 3.8737 5.47852 4.35547 5.83008C4.83724 6.17513 5.63151 6.51367 6.73828 6.8457C7.84505 7.17122 8.73372 7.54557 9.4043 7.96875C10.0749 8.38542 10.5664 8.86719 10.8789 9.41406C11.1914 9.95443 11.3477 10.5892 11.3477 11.3184C11.3477 12.5033 10.8919 13.4473 9.98047 14.1504C9.07552 14.847 7.84505 15.1953 6.28906 15.1953C5.26042 15.1953 4.31315 15.0065 3.44727 14.6289C2.58789 14.2448 1.91732 13.7174 1.43555 13.0469C0.960286 12.3763 0.722656 11.5951 0.722656 10.7031H3.19336C3.19336 11.5104 3.46029 12.1354 3.99414 12.5781C4.52799 13.0208 5.29297 13.2422 6.28906 13.2422C7.14844 13.2422 7.79297 13.0697 8.22266 12.7246C8.65885 12.373 8.87695 11.9108 8.87695 11.3379ZM25.116 0.78125V10.2832C25.116 11.7936 24.631 12.9915 23.6609 13.877C22.6974 14.7559 21.4116 15.1953 19.8035 15.1953C18.1759 15.1953 16.8836 14.7624 15.9266 13.8965C14.9695 13.0241 14.491 11.8164 14.491 10.2734V0.78125H16.952V10.293C16.952 11.2435 17.1928 11.9694 17.6746 12.4707C18.1564 12.972 18.866 13.2227 19.8035 13.2227C21.7046 13.2227 22.6551 12.2201 22.6551 10.2148V0.78125H25.116ZM28.9625 15V0.78125H33.8355C35.4436 0.78125 36.6676 1.10352 37.5074 1.74805C38.3473 2.39258 38.7672 3.35286 38.7672 4.62891C38.7672 5.27995 38.5914 5.86589 38.2398 6.38672C37.8883 6.90755 37.374 7.3112 36.6969 7.59766C37.4651 7.80599 38.0576 8.19987 38.4742 8.7793C38.8974 9.35221 39.109 10.0423 39.109 10.8496C39.109 12.1842 38.6793 13.2096 37.8199 13.9258C36.9671 14.6419 35.7431 15 34.148 15H28.9625ZM31.4332 8.58398V13.0273H34.1773C34.9521 13.0273 35.5576 12.8353 35.9937 12.4512C36.4299 12.0671 36.648 11.5332 36.648 10.8496C36.648 9.37174 35.8928 8.61654 34.3824 8.58398H31.4332ZM31.4332 6.76758H33.8551C34.6233 6.76758 35.2223 6.59505 35.652 6.25C36.0882 5.89844 36.3062 5.40365 36.3062 4.76562C36.3062 4.0625 36.1044 3.55469 35.7008 3.24219C35.3036 2.92969 34.6819 2.77344 33.8355 2.77344H31.4332V6.76758ZM50.2113 11.3379C50.2113 10.7129 49.99 10.2311 49.5473 9.89258C49.1111 9.55404 48.3201 9.21224 47.1742 8.86719C46.0284 8.52214 45.1169 8.13802 44.4398 7.71484C43.1443 6.90104 42.4965 5.83984 42.4965 4.53125C42.4965 3.38542 42.962 2.44141 43.893 1.69922C44.8305 0.957031 46.0447 0.585938 47.5355 0.585938C48.5251 0.585938 49.4073 0.768229 50.182 1.13281C50.9568 1.4974 51.5655 2.01823 52.0082 2.69531C52.4509 3.36589 52.6723 4.11133 52.6723 4.93164H50.2113C50.2113 4.18945 49.977 3.61003 49.5082 3.19336C49.046 2.77018 48.3819 2.55859 47.516 2.55859C46.7087 2.55859 46.0805 2.73112 45.6312 3.07617C45.1885 3.42122 44.9672 3.90299 44.9672 4.52148C44.9672 5.04232 45.2081 5.47852 45.6898 5.83008C46.1716 6.17513 46.9659 6.51367 48.0727 6.8457C49.1794 7.17122 50.0681 7.54557 50.7387 7.96875C51.4092 8.38542 51.9008 8.86719 52.2133 9.41406C52.5258 9.95443 52.682 10.5892 52.682 11.3184C52.682 12.5033 52.2263 13.4473 51.3148 14.1504C50.4099 14.847 49.1794 15.1953 47.6234 15.1953C46.5948 15.1953 45.6475 15.0065 44.7816 14.6289C43.9223 14.2448 43.2517 13.7174 42.7699 13.0469C42.2947 12.3763 42.057 11.5951 42.057 10.7031H44.5277C44.5277 11.5104 44.7947 12.1354 45.3285 12.5781C45.8624 13.0208 46.6273 13.2422 47.6234 13.2422C48.4828 13.2422 49.1273 13.0697 49.557 12.7246C49.9932 12.373 50.2113 11.9108 50.2113 11.3379ZM66.8996 10.3711C66.7564 11.888 66.1965 13.0729 65.2199 13.9258C64.2434 14.7721 62.9445 15.1953 61.3234 15.1953C60.1906 15.1953 59.1913 14.9284 58.3254 14.3945C57.466 13.8542 56.802 13.0892 56.3332 12.0996C55.8645 11.11 55.6203 9.96094 55.6008 8.65234V7.32422C55.6008 5.98307 55.8384 4.80143 56.3137 3.7793C56.7889 2.75716 57.4693 1.9694 58.3547 1.41602C59.2466 0.86263 60.2753 0.585938 61.4406 0.585938C63.0096 0.585938 64.2727 1.01237 65.2297 1.86523C66.1867 2.7181 66.7434 3.92253 66.8996 5.47852H64.4387C64.3215 4.45638 64.022 3.7207 63.5402 3.27148C63.065 2.81576 62.3651 2.58789 61.4406 2.58789C60.3664 2.58789 59.5396 2.98177 58.9602 3.76953C58.3872 4.55078 58.0943 5.69987 58.0812 7.2168V8.47656C58.0812 10.013 58.3547 11.1849 58.9016 11.9922C59.4549 12.7995 60.2622 13.2031 61.3234 13.2031C62.2935 13.2031 63.0227 12.985 63.5109 12.5488C63.9992 12.1126 64.3085 11.3867 64.4387 10.3711H66.8996ZM75.541 9.52148H72.7871V15H70.3164V0.78125H75.3164C76.957 0.78125 78.2233 1.14909 79.1152 1.88477C80.0072 2.62044 80.4531 3.6849 80.4531 5.07812C80.4531 6.02865 80.222 6.82617 79.7598 7.4707C79.304 8.10872 78.666 8.60026 77.8457 8.94531L81.0391 14.873V15H78.3926L75.541 9.52148ZM72.7871 7.53906H75.3262C76.1595 7.53906 76.8105 7.33073 77.2793 6.91406C77.748 6.49089 77.9824 5.91471 77.9824 5.18555C77.9824 4.42383 77.7643 3.83464 77.3281 3.41797C76.8984 3.0013 76.2539 2.78646 75.3945 2.77344H72.7871V7.53906ZM86.6043 15H84.1434V0.78125H86.6043V15ZM90.8414 15V0.78125H95.7145C97.3225 0.78125 98.5465 1.10352 99.3863 1.74805C100.226 2.39258 100.646 3.35286 100.646 4.62891C100.646 5.27995 100.47 5.86589 100.119 6.38672C99.7672 6.90755 99.2529 7.3112 98.5758 7.59766C99.344 7.80599 99.9365 8.19987 100.353 8.7793C100.776 9.35221 100.988 10.0423 100.988 10.8496C100.988 12.1842 100.558 13.2096 99.6988 13.9258C98.846 14.6419 97.622 15 96.027 15H90.8414ZM93.3121 8.58398V13.0273H96.0563C96.831 13.0273 97.4365 12.8353 97.8727 12.4512C98.3089 12.0671 98.527 11.5332 98.527 10.8496C98.527 9.37174 97.7717 8.61654 96.2613 8.58398H93.3121ZM93.3121 6.76758H95.734C96.5022 6.76758 97.1012 6.59505 97.5309 6.25C97.9671 5.89844 98.1852 5.40365 98.1852 4.76562C98.1852 4.0625 97.9833 3.55469 97.5797 3.24219C97.1826 2.92969 96.5608 2.77344 95.7145 2.77344H93.3121V6.76758ZM112.969 8.65234H107.129V13.0273H113.955V15H104.659V0.78125H113.887V2.77344H107.129V6.69922H112.969V8.65234ZM134.627 15H132.156L125.818 4.91211V15H123.348V0.78125H125.818L132.176 10.9082V0.78125H134.627V15ZM150.095 8.26172C150.095 9.65495 149.854 10.8789 149.372 11.9336C148.89 12.9818 148.2 13.7891 147.302 14.3555C146.41 14.9154 145.381 15.1953 144.216 15.1953C143.063 15.1953 142.035 14.9154 141.13 14.3555C140.231 13.7891 139.535 12.985 139.04 11.9434C138.552 10.9017 138.304 9.70052 138.298 8.33984V7.53906C138.298 6.15234 138.542 4.92839 139.03 3.86719C139.525 2.80599 140.218 1.99544 141.11 1.43555C142.009 0.869141 143.037 0.585938 144.196 0.585938C145.355 0.585938 146.38 0.865885 147.272 1.42578C148.171 1.97917 148.864 2.77995 149.352 3.82812C149.841 4.86979 150.088 6.08398 150.095 7.4707V8.26172ZM147.624 7.51953C147.624 5.94401 147.324 4.73633 146.725 3.89648C146.133 3.05664 145.29 2.63672 144.196 2.63672C143.128 2.63672 142.292 3.05664 141.686 3.89648C141.087 4.72982 140.781 5.91146 140.768 7.44141V8.26172C140.768 9.82422 141.071 11.0319 141.677 11.8848C142.289 12.7376 143.135 13.1641 144.216 13.1641C145.309 13.1641 146.149 12.7474 146.735 11.9141C147.328 11.0807 147.624 9.86328 147.624 8.26172V7.51953ZM164.908 11.4844L167.095 0.78125H169.546L166.265 15H163.902L161.197 4.61914L158.433 15H156.06L152.779 0.78125H155.23L157.437 11.4648L160.152 0.78125H162.222L164.908 11.4844Z" fill="black"/>
</svg>

